<svg xmlns="http://www.w3.org/2000/svg" width="351" height="306" viewBox="0 0 351 306">
<g>
<path d="M 0.00 0.00 L 351.00 0.00 L 351.00 306.00 L 0.00 306.00 ZM 172.38 223.56 C179.28,226.56 189.70,224.18 193.20,218.81 C196.33,213.99 197.28,209.16 196.04,204.26 C194.93,199.83 194.99,199.59 197.61,197.49 C200.96,194.82 199.23,193.15 195.59,195.53 C193.26,197.06 192.95,197.02 190.03,194.87 C188.01,193.37 187.16,192.05 187.57,191.04 C187.92,190.19 190.66,182.75 193.67,174.50 C196.68,166.25 199.51,159.11 199.98,158.64 C200.44,158.17 205.64,158.29 211.66,158.92 C229.60,160.81 228.42,160.37 229.83,165.67 C230.52,168.23 230.72,170.63 230.29,171.00 C229.86,171.38 223.54,175.85 216.25,180.94 C208.96,186.03 202.76,190.57 202.48,191.03 C201.20,193.10 204.50,193.01 207.35,190.90 C209.08,189.62 215.58,185.01 221.79,180.67 C232.24,173.36 233.22,172.89 234.83,174.35 C237.23,176.52 243.42,179.00 246.45,179.00 C251.17,179.00 257.12,175.82 260.10,171.70 C262.45,168.46 263.00,166.67 263.00,162.30 C263.00,159.33 262.35,155.64 261.55,154.10 C260.07,151.24 254.20,145.57 251.95,144.82 C250.98,144.49 251.12,142.13 252.56,134.20 C254.34,124.44 254.53,124.00 256.96,123.98 C261.21,123.94 267.57,120.43 270.62,116.44 C273.08,113.20 273.50,111.75 273.50,106.40 C273.50,99.38 271.81,96.21 265.91,92.16 C261.36,89.05 252.06,89.40 247.18,92.87 C242.43,96.26 239.68,102.28 240.23,108.09 C240.25,108.29 240.27,108.48 240.29,108.66 C240.45,110.25 240.55,111.28 240.20,112.11 C239.50,113.76 237.03,114.65 229.75,117.56 C224.23,119.76 223.95,119.78 223.01,118.02 C221.36,114.94 215.58,112.00 211.17,112.00 C208.29,112.00 206.79,111.48 206.14,110.25 C204.98,108.07 196.00,75.51 196.00,73.49 C196.00,72.67 196.59,72.00 197.30,72.00 C199.15,72.00 204.67,66.04 205.94,62.68 C207.84,57.63 207.22,51.74 204.31,47.26 C200.49,41.37 196.78,39.63 189.16,40.18 C183.58,40.59 182.57,41.02 178.96,44.54 C174.88,48.52 173.26,53.12 173.78,59.26 C173.98,61.70 173.39,62.30 168.75,64.41 C129.62,82.16 121.04,86.00 120.47,86.00 C120.09,86.00 118.90,84.87 117.81,83.48 C114.96,79.86 110.78,78.00 105.50,78.00 C99.93,78.00 96.30,79.75 92.20,84.43 C84.76,92.90 87.77,105.27 98.46,110.12 C103.63,112.47 107.65,112.47 112.23,110.14 L 115.89 108.27 L 118.27 110.89 C121.82,114.79 131.00,126.69 131.00,127.40 C131.00,127.73 125.56,134.79 118.91,143.07 C109.54,154.75 106.44,157.98 105.16,157.43 C104.25,157.04 101.03,156.54 98.00,156.32 C93.58,156.00 91.72,156.37 88.52,158.23 C75.03,166.07 78.47,186.72 93.75,189.61 C99.06,190.61 103.50,189.20 108.29,184.97 L 112.82 180.99 L 137.66 191.81 L 162.50 202.62 L 163.09 208.76 C163.78,215.82 167.22,221.32 172.38,223.56 ZM 170.50 288.31 C173.95,290.16 179.67,290.46 183.56,288.98 C185.03,288.42 188.27,286.18 190.74,284.00 C196.39,279.02 215.10,269.47 229.50,264.21 C249.57,256.88 276.13,251.24 299.00,249.44 C309.99,248.58 315.05,246.39 318.68,240.91 L 321.50 236.65 L 321.77 158.82 C321.78,154.07 321.80,149.61 321.82,145.40 C322.04,86.11 322.07,78.15 318.41,75.71 C317.58,75.15 316.57,74.88 315.33,74.36 C311.04,72.57 311.00,72.58 311.00,75.59 C311.00,77.07 311.96,78.96 313.25,80.00 L 315.50 81.82 L 315.80 155.66 C316.00,205.92 315.76,230.67 315.03,233.18 C313.26,239.27 309.34,241.73 300.28,242.42 C286.37,243.49 260.61,247.93 247.64,251.48 C223.53,258.09 194.45,271.12 186.28,278.96 C180.68,284.35 175.80,284.57 170.25,279.71 C150.27,262.22 100.16,246.01 55.03,242.42 C47.20,241.80 46.30,241.50 43.28,238.48 L 40.00 235.20 L 40.00 183.76 C40.00,155.47 39.71,121.56 39.35,108.41 L 38.70 84.50 L 41.35 81.36 C43.97,78.24 44.98,73.00 42.95,73.00 C42.37,73.00 40.58,73.68 38.97,74.52 C38.06,74.99 37.28,75.32 36.63,75.81 C32.99,78.52 32.99,86.11 33.00,149.90 C33.00,152.75 33.00,155.72 33.00,158.80 L 33.00 235.70 L 35.25 239.01 C36.49,240.83 39.11,243.61 41.07,245.19 C44.32,247.80 45.85,248.18 58.12,249.48 C83.17,252.12 100.89,255.73 120.39,262.16 C135.42,267.11 157.17,277.64 163.07,282.81 C165.51,284.95 168.85,287.42 170.50,288.31 ZM 176.75 272.92 C177.71,273.48 178.60,273.95 178.72,273.97 C178.84,273.99 181.30,271.90 184.19,269.33 C198.99,256.19 226.88,242.30 252.16,235.49 C261.04,233.10 278.12,229.91 289.95,228.44 C297.46,227.50 300.95,224.04 301.14,217.33 C301.22,214.67 301.19,175.15 301.09,129.50 C300.91,50.86 300.80,46.37 299.07,44.00 C297.28,41.55 297.01,41.50 284.83,41.68 C271.38,41.88 253.77,44.89 239.21,49.49 C230.26,52.32 227.99,54.08 230.07,56.58 C230.35,56.92 230.55,57.19 230.82,57.39 C231.91,58.19 233.98,57.65 245.98,54.50 C246.43,54.39 246.89,54.27 247.37,54.14 C261.66,50.40 279.60,47.79 288.20,48.20 L 294.50 48.50 L 295.01 220.04 L 292.76 220.94 C291.52,221.44 286.23,222.38 281.00,223.04 C245.12,227.51 207.31,242.44 183.19,261.65 C174.87,268.28 173.35,270.94 176.75,272.92 ZM 158.95 260.36 C163.60,263.46 167.67,266.00 168.00,266.00 C169.12,266.00 171.00,263.61 171.00,262.19 C171.00,260.49 167.79,257.87 158.84,252.28 C135.90,237.95 106.37,227.68 76.00,223.47 C68.41,222.43 62.81,221.14 61.75,220.22 C60.11,218.79 60.00,213.45 60.00,134.93 C60.00,88.86 60.27,50.45 60.61,49.58 C61.10,48.31 62.89,48.00 69.86,48.02 C82.18,48.04 94.71,50.21 114.36,55.72 C122.49,58.00 123.35,58.07 124.83,56.60 C126.27,55.16 126.28,54.85 124.89,53.46 C119.90,48.47 84.31,41.00 65.56,41.00 C60.89,41.00 59.53,41.45 56.84,43.85 L 53.65 46.70 L 53.89 134.10 C54.12,216.45 54.01,223.71 57.36,226.09 C57.81,226.41 58.32,226.64 58.90,226.95 C59.95,227.51 67.18,228.86 74.96,229.96 C89.99,232.08 104.57,235.44 116.95,239.65 C128.01,243.40 149.25,253.88 158.95,260.36 ZM 167.80 195.99 C165.98,198.10 164.27,199.86 164.00,199.89 C163.73,199.92 157.43,197.24 150.00,193.93 C142.57,190.62 131.32,185.68 125.00,182.95 L 113.50 177.98 L 114.16 168.47 L 125.05 164.20 L 135.94 159.94 L 139.91 163.91 C144.25,168.25 148.51,169.60 155.10,168.71 L 159.07 168.18 L 165.08 180.17 L 171.09 192.15 ZM 162.88 87.98 C154.46,98.44 147.33,106.95 147.03,106.90 C146.74,106.84 140.99,105.01 134.25,102.83 L 122.00 98.88 L 122.00 93.69 L 122.01 88.50 L 148.05 76.66 C162.37,70.15 174.75,65.07 175.56,65.39 C179.30,66.82 177.87,69.37 162.88,87.98 ZM 200.11 149.50 C198.83,152.88 197.61,154.55 196.36,154.64 C193.53,154.86 171.26,152.28 170.18,151.61 C169.66,151.29 168.93,149.42 168.56,147.45 C168.19,145.49 166.34,142.17 164.44,140.07 C162.55,137.97 161.00,135.85 161.00,135.34 C161.00,134.31 167.68,117.99 168.39,117.27 C168.64,117.02 174.06,118.53 180.43,120.63 L 192.00 124.43 L 192.00 127.90 C192.00,132.61 195.31,139.07 198.98,141.50 C200.64,142.60 202.00,143.73 202.00,144.00 C202.00,144.27 201.15,146.75 200.11,149.50 ZM 195.82 118.07 C194.09,120.23 192.40,121.96 192.08,121.91 C188.54,121.39 170.00,114.30 170.00,113.47 C170.00,112.23 184.62,74.05 185.39,73.27 C185.67,73.00 187.56,73.17 189.59,73.65 L 193.30 74.53 L 197.65 90.51 C203.68,112.63 203.68,112.65 201.10,113.47 C199.94,113.84 197.56,115.91 195.82,118.07 ZM 191.02 174.50 L 185.24 190.50 L 179.55 191.02 C176.24,191.32 173.52,191.11 173.04,190.52 C171.44,188.51 162.00,169.01 162.00,167.69 C162.00,166.95 163.11,165.30 164.47,164.03 C165.83,162.75 167.44,160.20 168.05,158.35 C168.86,155.88 169.73,155.02 171.33,155.06 C175.48,155.17 195.96,157.63 196.38,158.06 C196.61,158.30 194.19,165.70 191.02,174.50 ZM 238.42 146.50 C235.71,147.87 233.47,148.99 233.44,149.00 C233.41,149.00 231.23,146.50 228.59,143.45 C224.04,138.18 223.86,137.75 225.03,134.94 C225.71,133.29 226.04,129.81 225.78,127.07 L 225.31 122.17 L 233.62 118.95 L 241.94 115.74 L 245.31 118.62 C247.17,120.20 249.43,121.95 250.33,122.50 C251.68,123.32 251.81,124.21 251.05,127.50 C250.55,129.70 249.59,134.31 248.93,137.75 C247.89,143.15 247.43,144.00 245.53,144.00 C244.33,144.00 241.13,145.12 238.42,146.50 ZM 125.70 161.07 C120.35,163.23 115.19,164.99 114.24,164.97 C113.28,164.95 111.68,163.81 110.68,162.44 C108.88,159.97 108.90,159.91 112.68,154.74 C117.86,147.67 132.03,130.54 132.84,130.35 C133.20,130.27 135.26,132.19 137.40,134.62 L 141.30 139.05 L 139.22 141.27 C136.31,144.37 134.83,148.77 135.16,153.29 L 135.43 157.14 ZM 152.43 135.12 C149.17,135.47 145.57,136.06 144.43,136.44 C142.78,137.00 141.61,136.23 138.68,132.65 C136.66,130.18 135.00,127.86 135.00,127.48 C135.00,125.75 148.37,111.00 149.93,111.00 C151.36,111.00 157.89,112.97 164.70,115.46 C165.53,115.76 164.74,118.76 162.13,125.20 L 158.37 134.50 ZM 196.58 67.11 C192.63,69.53 188.33,69.50 184.30,67.04 C178.54,63.53 176.51,56.78 179.49,51.01 C181.77,46.60 184.79,45.00 190.80,45.00 C195.35,45.00 196.58,45.43 199.00,47.85 C204.62,53.47 203.43,62.94 196.58,67.11 ZM 110.96 105.36 C102.27,110.50 91.91,103.18 93.29,92.89 C94.17,86.31 98.29,83.00 105.61,83.00 C110.57,83.00 111.52,83.35 114.10,86.11 C119.34,91.72 117.78,101.34 110.96,105.36 ZM 262.81 117.65 C257.75,120.45 250.40,118.55 246.52,113.42 C243.07,108.87 245.59,99.30 250.97,96.52 C254.47,94.71 261.88,94.57 264.05,96.28 C271.05,101.80 270.38,113.45 262.81,117.65 ZM 214.70 139.04 C212.94,140.12 210.60,140.98 209.50,140.96 C203.21,140.85 197.01,134.61 197.00,128.40 C196.99,120.50 206.21,114.29 213.70,117.14 C218.53,118.98 221.27,122.87 221.27,127.89 C221.27,132.67 219.10,136.36 214.70,139.04 ZM 170.03 104.75 C168.29,109.29 166.32,112.96 165.68,112.92 C163.18,112.76 151.61,108.32 151.35,107.44 C151.20,106.92 157.25,98.90 164.80,89.60 C184.02,65.93 185.57,65.29 178.12,84.10 C175.42,90.92 171.78,100.21 170.03,104.75 ZM 158.78 162.44 C155.28,164.89 148.68,164.44 145.21,161.52 C135.60,153.44 140.58,140.00 153.18,140.00 C157.81,140.00 164.00,146.55 164.00,151.43 C164.00,155.78 161.87,160.28 158.78,162.44 ZM 250.36 172.62 C246.18,174.37 245.26,174.32 241.10,172.11 C237.36,170.11 234.11,164.94 234.04,160.90 C233.93,153.91 242.75,147.77 249.62,150.04 C260.43,153.61 260.91,168.21 250.36,172.62 ZM 186.79 217.52 C184.68,219.30 182.66,220.00 179.67,220.00 C167.59,219.98 163.39,202.99 174.10,197.45 C180.79,193.99 187.66,196.93 190.55,204.49 C192.59,209.84 191.53,213.54 186.79,217.52 ZM 102.76 183.00 C95.15,187.64 86.31,182.95 85.27,173.71 C84.67,168.42 86.01,165.57 90.31,162.95 C95.16,159.99 100.25,160.40 104.43,164.08 C110.80,169.66 110.01,178.59 102.76,183.00 ZM 230.72 154.46 C229.47,157.08 228.44,157.96 226.77,157.86 C221.41,157.54 207.24,156.06 204.28,155.52 L 201.06 154.92 L 202.79 150.27 C204.45,145.82 204.69,145.62 208.74,145.41 C211.07,145.29 215.05,144.19 217.59,142.96 L 222.20 140.72 L 227.30 145.83 L 232.40 150.93 ZM 139.78 117.12 C136.42,121.46 133.41,125.00 133.09,125.00 C132.49,125.00 130.90,123.09 122.60,112.36 C118.31,106.81 117.98,106.01 119.16,104.11 C119.89,102.95 121.15,102.00 121.98,102.00 C122.80,102.00 128.52,103.63 134.68,105.62 L 145.89 109.25 Z" fill="rgb(5,14,16)"/>
<path d="M 200.11 149.50 C201.15,146.75 202.00,144.27 202.00,144.00 C202.00,143.73 200.64,142.60 198.98,141.50 C195.31,139.07 192.00,132.61 192.00,127.90 L 192.00 124.43 L 180.43 120.63 C174.06,118.53 168.64,117.02 168.39,117.27 C167.68,117.99 161.00,134.31 161.00,135.34 C161.00,135.76 162.09,137.32 163.55,139.05 L 163.54 139.04 C160.53,136.12 159.19,135.57 154.26,135.23 C153.54,135.18 152.86,135.16 152.20,135.15 C152.28,135.14 152.36,135.13 152.43,135.12 L 158.37 134.50 L 162.13 125.20 C164.74,118.76 165.53,115.76 164.70,115.46 C157.89,112.97 151.36,111.00 149.93,111.00 C148.37,111.00 135.00,125.75 135.00,127.48 C135.00,127.86 136.66,130.18 138.68,132.65 C141.61,136.23 142.78,137.00 144.43,136.44 C144.74,136.34 145.24,136.22 145.86,136.09 C144.17,136.72 142.68,137.67 141.26,139.00 L 137.40 134.62 C135.26,132.19 133.20,130.27 132.84,130.35 C132.03,130.54 117.86,147.67 112.68,154.74 C108.90,159.91 108.88,159.97 110.68,162.44 C110.75,162.54 110.82,162.63 110.90,162.72 C110.62,162.43 110.32,162.12 109.98,161.78 C107.52,159.30 105.41,157.77 103.00,156.92 C104.00,157.09 104.78,157.27 105.16,157.43 C106.44,157.98 109.54,154.75 118.91,143.07 C125.56,134.79 131.00,127.73 131.00,127.40 C131.00,126.69 121.82,114.79 118.27,110.89 L 115.89 108.27 L 112.23 110.14 C107.65,112.47 103.63,112.47 98.46,110.12 C87.77,105.27 84.76,92.90 92.20,84.43 C96.30,79.75 99.93,78.00 105.50,78.00 C110.78,78.00 114.96,79.86 117.81,83.48 C118.90,84.87 120.09,86.00 120.47,86.00 C121.04,86.00 129.62,82.16 168.75,64.41 C173.39,62.30 173.98,61.70 173.78,59.26 C173.26,53.12 174.88,48.52 178.96,44.54 C182.57,41.02 183.58,40.59 189.16,40.18 C196.78,39.63 200.49,41.37 204.31,47.26 C207.22,51.74 207.84,57.63 205.94,62.68 C204.67,66.04 199.15,72.00 197.30,72.00 C196.59,72.00 196.00,72.67 196.00,73.49 C196.00,75.51 204.98,108.07 206.14,110.25 C206.79,111.48 208.29,112.00 211.17,112.00 C215.58,112.00 221.36,114.94 223.01,118.02 C223.95,119.78 224.23,119.76 229.75,117.56 C237.03,114.65 239.50,113.76 240.20,112.11 C240.55,111.28 240.45,110.25 240.29,108.66 C240.27,108.48 240.25,108.29 240.23,108.09 C239.68,102.28 242.43,96.26 247.18,92.87 C252.06,89.40 261.36,89.05 265.91,92.16 C271.81,96.21 273.50,99.38 273.50,106.40 C273.50,111.75 273.08,113.20 270.62,116.44 C267.57,120.43 261.21,123.94 256.96,123.98 C255.00,123.99 254.50,124.29 253.45,129.49 C254.22,124.62 254.06,123.00 253.05,123.00 C252.62,123.00 251.98,124.20 251.40,125.79 C251.71,123.86 251.41,123.16 250.33,122.50 C249.43,121.95 247.17,120.20 245.31,118.62 L 241.94 115.74 L 233.62 118.95 L 225.31 122.17 L 225.78 127.07 C226.04,129.81 225.71,133.29 225.03,134.94 C223.86,137.75 224.04,138.18 228.59,143.45 C231.23,146.50 233.41,149.00 233.44,149.00 C233.47,148.99 235.02,148.22 237.09,147.17 C233.96,148.89 232.70,150.37 231.03,153.94 C229.34,157.55 228.84,160.47 229.48,164.30 C228.47,160.43 227.89,160.63 211.66,158.92 C205.64,158.29 200.44,158.17 199.98,158.64 C199.51,159.11 196.68,166.25 193.67,174.50 C190.66,182.75 187.92,190.19 187.57,191.04 C187.20,191.96 187.85,193.12 189.48,194.44 C189.27,194.29 189.06,194.13 188.83,193.96 C184.77,191.00 184.09,190.83 178.04,191.30 C172.78,191.71 171.57,192.01 168.97,194.63 L 171.09 192.15 L 165.08 180.17 L 159.07 168.18 L 155.10 168.71 C154.85,168.75 154.60,168.78 154.36,168.80 C157.84,168.35 161.18,167.01 163.63,164.90 C162.68,165.98 162.00,167.11 162.00,167.69 C162.00,169.01 171.44,188.51 173.04,190.52 C173.52,191.11 176.24,191.32 179.55,191.02 L 185.24 190.50 L 191.02 174.50 C194.19,165.70 196.61,158.30 196.38,158.06 C195.96,157.63 175.48,155.17 171.33,155.06 C170.12,155.03 169.33,155.51 168.66,156.83 C169.03,155.79 169.33,154.75 169.53,153.74 C169.72,152.82 169.64,151.60 169.35,150.24 C169.63,150.95 169.93,151.46 170.18,151.61 C171.26,152.28 193.53,154.86 196.36,154.64 C197.61,154.55 198.83,152.88 200.11,149.50 ZM 170.50 288.31 C168.85,287.42 165.51,284.95 163.07,282.81 C157.17,277.64 135.42,267.11 120.39,262.16 C100.89,255.73 83.17,252.12 58.12,249.48 C45.85,248.18 44.32,247.80 41.07,245.19 C39.11,243.61 36.49,240.83 35.25,239.01 L 33.00 235.70 L 33.00 158.80 C33.00,155.72 33.00,152.75 33.00,149.90 C32.99,86.11 32.99,78.52 36.63,75.81 C37.28,75.32 38.06,74.99 38.97,74.52 C40.58,73.68 42.37,73.00 42.95,73.00 C44.98,73.00 43.97,78.24 41.35,81.36 L 38.70 84.50 L 39.35 108.41 C39.71,121.56 40.00,155.47 40.00,183.76 L 40.00 235.20 L 43.28 238.48 C46.30,241.50 47.20,241.80 55.03,242.42 C100.16,246.01 150.27,262.22 170.25,279.71 C175.80,284.57 180.68,284.35 186.28,278.96 C194.45,271.12 223.53,258.09 247.64,251.48 C260.61,247.93 286.37,243.49 300.28,242.42 C309.34,241.73 313.26,239.27 315.03,233.18 C315.76,230.67 316.00,205.92 315.80,155.66 L 315.50 81.82 L 313.25 80.00 C311.96,78.96 311.00,77.07 311.00,75.59 C311.00,72.58 311.04,72.57 315.33,74.36 C316.57,74.88 317.58,75.15 318.41,75.71 C322.07,78.15 322.04,86.11 321.82,145.40 C321.80,149.61 321.78,154.07 321.77,158.82 L 321.50 236.65 L 318.68 240.91 C315.05,246.39 309.99,248.58 299.00,249.44 C276.13,251.24 249.57,256.88 229.50,264.21 C215.10,269.47 196.39,279.02 190.74,284.00 C188.27,286.18 185.03,288.42 183.56,288.98 C179.67,290.46 173.95,290.16 170.50,288.31 ZM 176.75 272.92 C173.35,270.94 174.87,268.28 183.19,261.65 C207.31,242.44 245.12,227.51 281.00,223.04 C286.23,222.38 291.52,221.44 292.76,220.94 L 295.01 220.04 L 294.50 48.50 L 288.20 48.20 C279.60,47.79 261.66,50.40 247.37,54.14 C246.89,54.27 246.43,54.39 245.98,54.50 C233.98,57.65 231.91,58.19 230.82,57.39 C230.55,57.19 230.35,56.92 230.07,56.58 C227.99,54.08 230.26,52.32 239.21,49.49 C253.77,44.89 271.38,41.88 284.83,41.68 C297.01,41.50 297.28,41.55 299.07,44.00 C300.80,46.37 300.91,50.86 301.09,129.50 C301.19,175.15 301.22,214.67 301.14,217.33 C300.95,224.04 297.46,227.50 289.95,228.44 C278.12,229.91 261.04,233.10 252.16,235.49 C226.88,242.30 198.99,256.19 184.19,269.33 C181.30,271.90 178.84,273.99 178.72,273.97 C178.60,273.95 177.71,273.48 176.75,272.92 ZM 158.95 260.36 C149.25,253.88 128.01,243.40 116.95,239.65 C104.57,235.44 89.99,232.08 74.96,229.96 C67.18,228.86 59.95,227.51 58.90,226.95 C58.32,226.64 57.81,226.41 57.36,226.09 C54.01,223.71 54.12,216.45 53.89,134.10 L 53.65 46.70 L 56.84 43.85 C59.53,41.45 60.89,41.00 65.56,41.00 C84.31,41.00 119.90,48.47 124.89,53.46 C126.28,54.85 126.27,55.16 124.83,56.60 C123.35,58.07 122.49,58.00 114.36,55.72 C94.71,50.21 82.18,48.04 69.86,48.02 C62.89,48.00 61.10,48.31 60.61,49.58 C60.27,50.45 60.00,88.86 60.00,134.93 C60.00,213.45 60.11,218.79 61.75,220.22 C62.81,221.14 68.41,222.43 76.00,223.47 C106.37,227.68 135.90,237.95 158.84,252.28 C167.79,257.87 171.00,260.49 171.00,262.19 C171.00,263.61 169.12,266.00 168.00,266.00 C167.67,266.00 163.60,263.46 158.95,260.36 ZM 162.88 87.98 C177.87,69.37 179.30,66.82 175.56,65.39 C174.75,65.07 162.37,70.15 148.05,76.66 L 122.01 88.50 L 122.00 93.69 L 122.00 98.88 L 134.25 102.83 C140.99,105.01 146.74,106.84 147.03,106.90 C147.33,106.95 154.46,98.44 162.88,87.98 ZM 195.82 118.07 C197.56,115.91 199.94,113.84 201.10,113.47 C203.68,112.65 203.68,112.63 197.65,90.51 L 193.30 74.53 L 189.59 73.65 C187.56,73.17 185.67,73.00 185.39,73.27 C184.62,74.05 170.00,112.23 170.00,113.47 C170.00,114.30 188.54,121.39 192.08,121.91 C192.40,121.96 194.09,120.23 195.82,118.07 ZM 196.58 67.11 C203.43,62.94 204.62,53.47 199.00,47.85 C196.58,45.43 195.35,45.00 190.80,45.00 C184.79,45.00 181.77,46.60 179.49,51.01 C176.51,56.78 178.54,63.53 184.30,67.04 C188.33,69.50 192.63,69.53 196.58,67.11 ZM 110.96 105.36 C117.78,101.34 119.34,91.72 114.10,86.11 C111.52,83.35 110.57,83.00 105.61,83.00 C98.29,83.00 94.17,86.31 93.29,92.89 C91.91,103.18 102.27,110.50 110.96,105.36 ZM 262.81 117.65 C270.38,113.45 271.05,101.80 264.05,96.28 C261.88,94.57 254.47,94.71 250.97,96.52 C245.59,99.30 243.07,108.87 246.52,113.42 C250.40,118.55 257.75,120.45 262.81,117.65 ZM 214.70 139.04 C219.10,136.36 221.27,132.67 221.27,127.89 C221.27,122.87 218.53,118.98 213.70,117.14 C206.21,114.29 196.99,120.50 197.00,128.40 C197.01,134.61 203.21,140.85 209.50,140.96 C210.60,140.98 212.94,140.12 214.70,139.04 ZM 170.03 104.75 C171.78,100.21 175.42,90.92 178.12,84.10 C185.57,65.29 184.02,65.93 164.80,89.60 C157.25,98.90 151.20,106.92 151.35,107.44 C151.61,108.32 163.18,112.76 165.68,112.92 C166.32,112.96 168.29,109.29 170.03,104.75 ZM 230.72 154.46 L 232.40 150.93 L 227.30 145.83 L 222.20 140.72 L 217.59 142.96 C215.05,144.19 211.07,145.29 208.74,145.41 C204.69,145.62 204.45,145.82 202.79,150.27 L 201.06 154.92 L 204.28 155.52 C207.24,156.06 221.41,157.54 226.77,157.86 C228.44,157.96 229.47,157.08 230.72,154.46 ZM 139.78 117.12 L 145.89 109.25 L 134.68 105.62 C128.52,103.63 122.80,102.00 121.98,102.00 C121.15,102.00 119.89,102.95 119.16,104.11 C117.98,106.01 118.31,106.81 122.60,112.36 C130.90,123.09 132.49,125.00 133.09,125.00 C133.41,125.00 136.42,121.46 139.78,117.12 ZM 125.70 161.07 L 135.43 157.14 L 135.16 153.29 C134.84,148.92 136.22,144.67 138.93,141.59 C134.03,147.93 134.07,156.31 138.16,162.16 L 135.94 159.94 L 125.05 164.20 L 114.16 168.47 L 113.50 177.97 L 113.50 177.97 L 113.58 171.73 C113.64,166.94 113.52,165.68 111.60,163.48 C112.50,164.35 113.54,164.96 114.24,164.97 C115.19,164.99 120.35,163.23 125.70,161.07 ZM 93.78 156.31 C87.83,157.47 82.78,162.04 80.85,167.78 C82.01,164.00 84.52,160.55 88.52,158.23 C90.48,157.09 91.93,156.51 93.78,156.31 ZM 250.00 132.42 C249.92,133.56 249.42,136.35 248.83,138.92 C248.41,140.75 248.06,141.95 247.64,142.72 C248.08,141.81 248.44,140.28 248.93,137.75 C249.25,136.11 249.63,134.21 250.00,132.42 ZM 211.85 187.67 C214.92,185.45 219.37,182.30 223.30,179.58 C232.09,173.48 233.18,172.93 234.70,174.23 C233.16,172.92 231.96,173.56 221.79,180.67 C218.26,183.14 214.64,185.69 211.85,187.67 ZM 168.57 147.54 C167.73,145.15 166.45,142.65 165.01,140.73 C166.69,142.82 168.23,145.68 168.56,147.45 ZM 252.08 136.92 C251.10,142.69 251.10,144.53 251.95,144.82 C253.10,145.20 255.19,146.87 257.16,148.78 C255.18,146.86 253.08,145.19 251.90,144.80 C250.93,144.48 250.95,142.87 252.08,136.92 ZM 202.52 192.03 C202.63,192.21 202.74,192.37 202.86,192.49 C202.20,192.36 201.96,191.87 202.48,191.03 C202.55,190.91 203.02,190.52 203.81,189.91 C202.33,191.17 202.25,191.60 202.52,192.03 ZM 84.07 184.00 C87.39,187.87 92.44,190.17 97.98,189.88 C96.62,189.98 95.22,189.89 93.75,189.61 C89.63,188.83 86.37,186.76 84.07,184.00 ZM 164.04 199.88 L 163.89 200.04 L 157.00 197.01 C161.02,198.75 163.82,199.91 164.00,199.89 C164.01,199.89 164.03,199.88 164.04,199.88 ZM 149.12 193.54 L 143.69 191.15 C138.04,188.65 132.33,186.14 127.72,184.13 C133.92,186.82 142.72,190.69 149.12,193.54 ZM 165.58 162.78 C166.47,161.57 167.31,160.07 168.01,158.48 C167.54,159.81 166.58,161.48 165.58,162.78 ZM 230.32 167.89 C230.38,168.09 230.44,168.29 230.50,168.50 C230.59,168.82 230.61,169.13 230.50,169.48 C230.48,169.02 230.42,168.48 230.32,167.89 ZM 103.56 188.28 C105.14,187.41 106.89,186.21 108.29,184.97 C106.69,186.38 105.13,187.48 103.56,188.28 ZM 146.77 168.30 C148.26,168.73 149.84,168.94 151.44,168.97 C149.74,168.96 148.20,168.75 146.77,168.30 ZM 240.83 145.39 C242.57,144.67 244.23,144.14 245.18,144.02 C244.25,144.14 242.59,144.67 240.83,145.39 Z" fill="rgb(60,238,235)"/>
<path d="M 172.38 223.56 C167.22,221.32 163.78,215.82 163.09,208.76 L 162.50 202.62 L 137.66 191.81 L 112.82 180.99 L 108.29 184.97 C105.81,187.16 102.25,189.24 100.39,189.59 C89.60,191.61 79.97,183.67 80.02,172.79 C80.05,163.85 87.80,156.05 96.68,156.02 C102.40,155.99 105.64,157.40 109.98,161.78 C113.46,165.29 113.66,165.84 113.58,171.73 L 113.50 177.97 L 118.50 180.11 C121.25,181.28 132.59,186.25 143.69,191.15 L 163.89 200.04 L 167.73 195.92 C171.31,192.09 172.02,191.77 178.04,191.30 C184.09,190.83 184.77,191.00 188.83,193.96 C192.96,196.98 193.27,197.05 195.61,195.52 C199.24,193.14 200.95,194.83 197.61,197.49 C194.99,199.59 194.93,199.83 196.04,204.26 C197.28,209.16 196.33,213.99 193.20,218.81 C189.70,224.18 179.28,226.56 172.38,223.56 ZM 186.79 217.52 C191.53,213.54 192.59,209.84 190.55,204.49 C187.66,196.93 180.79,193.99 174.10,197.45 C163.39,202.99 167.59,219.98 179.67,220.00 C182.66,220.00 184.68,219.30 186.79,217.52 ZM 102.76 183.00 C110.01,178.59 110.80,169.66 104.43,164.08 C100.25,160.40 95.16,159.99 90.31,162.95 C86.01,165.57 84.67,168.42 85.27,173.71 C86.31,182.95 95.15,187.64 102.76,183.00 ZM 202.52 192.03 C201.89,191.02 203.18,190.01 220.36,178.00 C229.27,171.78 231.00,170.16 230.50,168.50 C228.64,162.33 228.77,158.76 231.03,153.94 C232.91,149.92 234.27,148.55 238.36,146.51 C241.13,145.13 244.35,144.00 245.52,144.00 C247.27,144.00 247.87,143.07 248.83,138.92 C249.47,136.13 250.00,133.09 250.01,132.17 C250.02,129.19 252.07,123.00 253.05,123.00 C254.41,123.00 254.24,125.94 252.31,135.76 C250.95,142.66 250.87,144.46 251.90,144.80 C254.20,145.57 260.06,151.22 261.55,154.10 C262.35,155.64 263.00,159.33 263.00,162.30 C263.00,166.67 262.45,168.46 260.10,171.70 C257.12,175.82 251.17,179.00 246.45,179.00 C243.42,179.00 237.24,176.52 234.84,174.35 C233.23,172.90 232.34,173.31 223.30,179.58 C217.91,183.31 211.52,187.86 209.11,189.69 C204.42,193.22 203.46,193.56 202.52,192.03 ZM 250.36 172.62 C260.91,168.21 260.43,153.61 249.62,150.04 C242.75,147.77 233.93,153.91 234.04,160.90 C234.11,164.94 237.36,170.11 241.10,172.11 C245.26,174.32 246.18,174.37 250.36,172.62 ZM 144.18 167.32 C134.68,162.64 132.21,150.04 139.09,141.39 C143.08,136.36 147.08,134.74 154.26,135.23 C159.19,135.57 160.53,136.12 163.54,139.04 C167.07,142.46 170.24,150.24 169.53,153.74 C168.79,157.39 166.79,161.58 164.68,163.88 C160.04,168.94 150.66,170.51 144.18,167.32 ZM 158.78 162.44 C161.87,160.28 164.00,155.78 164.00,151.43 C164.00,146.55 157.81,140.00 153.18,140.00 C140.58,140.00 135.60,153.44 145.21,161.52 C148.68,164.44 155.28,164.89 158.78,162.44 Z" fill="rgb(204,52,199)"/>
</g>
</svg>